<?xml version="1.0" standalone="no"?>
<!DOCTYPE svg PUBLIC "-//W3C//DTD SVG 20010904//EN"
 "http://www.w3.org/TR/2001/REC-SVG-20010904/DTD/svg10.dtd">
<svg version="1.0" xmlns="http://www.w3.org/2000/svg"
 width="187.000000pt" height="187.000000pt" viewBox="0 0 187.000000 187.000000"
 preserveAspectRatio="xMidYMid meet">

<g transform="translate(0.000000,187.000000) scale(0.100000,-0.100000)"
fill="#000000" stroke="none">
<path d="M770 1708 c0 -71 -7 -81 -68 -106 -92 -38 -96 -38 -145 2 l-43 35
-129 -129 c-141 -141 -135 -127 -76 -192 l24 -27 -25 -58 c-14 -32 -29 -68
-32 -79 -7 -22 -45 -34 -108 -34 l-28 0 0 -185 0 -185 38 -1 c80 -3 91 -10
118 -74 39 -93 39 -90 -2 -140 l-37 -46 128 -129 129 -129 49 39 49 39 36 -18
c21 -10 56 -24 80 -31 35 -11 42 -17 42 -39 0 -14 3 -43 6 -63 l7 -38 108 0
108 0 3 98 3 97 101 3 101 3 27 -36 c48 -62 115 -81 176 -50 89 46 104 166 29
230 -64 53 -133 46 -196 -21 l-41 -45 -99 3 -98 3 -3 47 -3 48 -37 0 c-60 0
-162 28 -216 60 -57 32 -132 106 -163 160 -76 130 -73 317 6 442 80 126 220
208 356 208 l54 0 3 48 3 47 105 3 105 2 17 -29 c23 -41 60 -63 110 -63 77 -2
133 44 145 117 7 44 -27 115 -66 138 -62 36 -166 10 -193 -48 -11 -24 -14 -25
-120 -25 l-108 0 0 95 0 95 -115 0 -115 0 0 -42z"/>
<path d="M1563 1440 c-37 -22 -63 -67 -63 -107 0 -26 -8 -33 -77 -68 l-78 -40
-255 -5 c-240 -5 -257 -6 -297 -28 -98 -52 -154 -137 -161 -247 -3 -58 0 -80
17 -121 26 -59 77 -113 141 -146 43 -22 56 -23 300 -26 l254 -4 78 -39 c76
-38 78 -40 78 -75 0 -48 59 -109 113 -119 107 -20 198 96 151 192 -37 75 -132
106 -199 64 l-30 -18 -87 43 -88 44 -240 0 c-257 0 -286 5 -338 53 -90 83 -79
234 20 303 l41 29 261 5 261 5 83 43 84 43 44 -22 c79 -37 151 -11 186 67 55
125 -83 245 -199 174z"/>
<path d="M1593 1069 c-18 -5 -47 -27 -64 -49 l-32 -40 -314 0 -313 0 0 -45 0
-45 318 0 319 0 11 -25 c24 -53 120 -82 175 -54 71 37 99 105 72 175 -27 71
-98 105 -172 83z"/>
</g>
</svg>
